# xmcd
#
# Track frame offsets: 
#        150
#        18977
#        40040
#        57096
#        70881
#        88922
#        109136
#        126411
#        151357
#        169243
#        187581
#        203324
#
# Disc length: 2910 seconds
#
# Revision: 0
# Processed by: cddbd v1.5.2PL0 Copyright (c) Steve Scherf et al.
# Submitted via: ExactAudioCopy v1.1
#
DISCID=950b5c0c
DTITLE=Caroline Larsson and Music City Band - Nashville Country Night Li
DTITLE=ve
DYEAR=2014
DGENRE=Country
TTITLE0=Long Time Gone
TTITLE1=Love Story
TTITLE2=Falling so Hard
TTITLE3=Jolene
TTITLE4=Somebody Like You
TTITLE5=Rollercoaster Ride
TTITLE6=Here for the Party
TTITLE7=Whiskey Lullaby
TTITLE8=Rebel Thinker
TTITLE9=I Will Always Love You
TTITLE10=Stand by Your Man
TTITLE11=Keep on Loving You
EXTD=
EXTT0=
EXTT1=
EXTT2=
EXTT3=
EXTT4=
EXTT5=
EXTT6=
EXTT7=
EXTT8=
EXTT9=
EXTT10=
EXTT11=
PLAYORDER=
